<svg width="640" height="360" viewBox="0 0 640 360" xmlns="http://www.w3.org/2000/svg">
  <!-- Wing fragments - left side -->
  <g>
    <polygon points="200,270 240,100 270,140" fill="#EEEEF0" opacity="0.9"/>
    <polygon points="190,260 224,120 210,170" fill="#EEEEF0" opacity="0.5"/>
    <polygon points="216,250 236,144 250,180" fill="#EEEEF0" opacity="0.3"/>
    <rect x="176" y="190" width="10" height="10" fill="#EEEEF0" opacity="0.25" transform="rotate(15 181 195)"/>
    <rect x="164" y="216" width="6" height="6" fill="#EEEEF0" opacity="0.15" transform="rotate(30 167 219)"/>
    <rect x="186" y="156" width="8" height="8" fill="#EEEEF0" opacity="0.12" transform="rotate(-10 190 160)"/>
  </g>

  <!-- Wing fragments - right side -->
  <g>
    <polygon points="440,270 400,100 370,140" fill="#EEEEF0" opacity="0.9"/>
    <polygon points="450,260 416,120 430,170" fill="#EEEEF0" opacity="0.5"/>
    <polygon points="424,250 404,144 390,180" fill="#EEEEF0" opacity="0.3"/>
    <rect x="454" y="190" width="10" height="10" fill="#EEEEF0" opacity="0.25" transform="rotate(-15 459 195)"/>
    <rect x="470" y="216" width="6" height="6" fill="#EEEEF0" opacity="0.15" transform="rotate(-30 473 219)"/>
    <rect x="450" y="156" width="8" height="8" fill="#EEEEF0" opacity="0.12" transform="rotate(10 454 160)"/>
  </g>

  <!-- Central core -->
  <circle cx="320" cy="160" r="16" fill="none" stroke="#EEEEF0" stroke-width="1.5" opacity="0.8"/>
  <circle cx="320" cy="160" r="6" fill="#EEEEF0" opacity="0.95"/>

  <!-- ARKE text -->
  <text x="320" y="330" fill="#EEEEF0" font-family="Arial, Helvetica, sans-serif" font-size="60" font-weight="500" letter-spacing="16" text-anchor="middle">ARKE</text>
</svg>
