<svg width="640" height="360" viewBox="0 0 640 360" xmlns="http://www.w3.org/2000/svg">
  <!-- Wing fragments - left side -->
  <g opacity="0.9">
    <polygon points="200,270 240,100 270,140" fill="#00F0FF" opacity="0.85"/>
    <polygon points="190,260 224,120 210,170" fill="#8B5CF6" opacity="0.7"/>
    <polygon points="216,250 236,144 250,180" fill="#FF2D95" opacity="0.55"/>
    <rect x="176" y="190" width="10" height="10" fill="#00F0FF" opacity="0.4" transform="rotate(15 181 195)"/>
    <rect x="164" y="216" width="6" height="6" fill="#8B5CF6" opacity="0.3" transform="rotate(30 167 219)"/>
    <rect x="186" y="156" width="8" height="8" fill="#FF2D95" opacity="0.25" transform="rotate(-10 190 160)"/>
    <rect x="156" y="176" width="4" height="4" fill="#00F0FF" opacity="0.2"/>
    <rect x="170" y="144" width="6" height="6" fill="#8B5CF6" opacity="0.15" transform="rotate(45 173 147)"/>
  </g>

  <!-- Wing fragments - right side -->
  <g opacity="0.9">
    <polygon points="440,270 400,100 370,140" fill="#00F0FF" opacity="0.85"/>
    <polygon points="450,260 416,120 430,170" fill="#8B5CF6" opacity="0.7"/>
    <polygon points="424,250 404,144 390,180" fill="#FF2D95" opacity="0.55"/>
    <rect x="454" y="190" width="10" height="10" fill="#00F0FF" opacity="0.4" transform="rotate(-15 459 195)"/>
    <rect x="470" y="216" width="6" height="6" fill="#8B5CF6" opacity="0.3" transform="rotate(-30 473 219)"/>
    <rect x="450" y="156" width="8" height="8" fill="#FF2D95" opacity="0.25" transform="rotate(10 454 160)"/>
    <rect x="480" y="176" width="4" height="4" fill="#00F0FF" opacity="0.2"/>
    <rect x="464" y="144" width="6" height="6" fill="#8B5CF6" opacity="0.15" transform="rotate(-45 467 147)"/>
  </g>

  <!-- Central core -->
  <circle cx="320" cy="160" r="16" fill="none" stroke="#00F0FF" stroke-width="2"/>
  <circle cx="320" cy="160" r="6" fill="#ffffff" opacity="0.95"/>
  <circle cx="320" cy="160" r="24" fill="none" stroke="#8B5CF6" stroke-width="0.6" opacity="0.25"/>
  <circle cx="320" cy="160" r="32" fill="none" stroke="#FF2D95" stroke-width="0.4" opacity="0.12"/>

  <!-- ARKE text -->
  <text x="320" y="330" fill="#EEEEF0" font-family="Arial, Helvetica, sans-serif" font-size="60" font-weight="500" letter-spacing="16" text-anchor="middle">ARKE</text>
</svg>
